# Blender v2.79 (sub 0) OBJ File: ''
# www.blender.org
mtllib start.mtl
o Text_CUText
v -65.803246 -0.000008 57.865654
v -67.758446 -0.000008 58.367718
v -65.773056 -0.000008 58.172169
v -67.788635 -0.000007 58.061203
v -66.625267 -0.000007 57.946617
v -66.829056 -0.000008 55.877628
v -66.966614 -0.000007 57.980240
v -67.170403 -0.000008 55.911251
v -64.112198 -0.000008 55.610035
v -64.248390 -0.000008 57.726578
v -63.878223 -0.000008 57.985542
v -64.477325 -0.000008 58.044548
v -64.594170 -0.000008 58.050766
v -64.704063 -0.000008 58.045940
v -64.806564 -0.000008 58.030376
v -64.901230 -0.000008 58.004368
v -64.987617 -0.000008 57.968216
v -65.065277 -0.000008 57.922215
v -65.133759 -0.000008 57.866665
v -64.467827 -0.000008 57.748192
v -65.192635 -0.000008 57.801865
v -64.321808 -0.000008 56.981182
v -64.546730 -0.000008 57.753132
v -64.618149 -0.000008 57.751793
v -64.682297 -0.000008 57.744366
v -65.241447 -0.000008 57.728111
v -64.739410 -0.000008 57.731041
v -64.789703 -0.000008 57.712017
v -64.833412 -0.000008 57.687481
v -65.279755 -0.000008 57.645702
v -64.870758 -0.000008 57.657631
v -64.901962 -0.000008 57.622658
v -64.927254 -0.000008 57.582756
v -65.307114 -0.000008 57.554939
v -64.946861 -0.000008 57.538116
v -64.960999 -0.000008 57.488930
v -65.323074 -0.000008 57.456116
v -64.969910 -0.000008 57.435398
v -64.973297 -0.000008 57.385941
v -65.326752 -0.000008 57.388504
v -64.971550 -0.000008 57.337036
v -65.324287 -0.000008 57.323341
v -64.964081 -0.000008 57.289253
v -64.950287 -0.000008 57.243160
v -65.315781 -0.000008 57.260757
v -64.929581 -0.000008 57.199314
v -65.301323 -0.000008 57.200882
v -64.901367 -0.000008 57.158283
v -65.281021 -0.000008 57.143852
v -64.865051 -0.000008 57.120628
v -64.820045 -0.000008 57.086918
v -65.254967 -0.000008 57.089798
v -64.765755 -0.000008 57.057716
v -64.701584 -0.000008 57.033585
v -65.223259 -0.000008 57.038853
v -64.626945 -0.000008 57.015091
v -64.541245 -0.000008 57.002796
v -64.351997 -0.000008 56.674667
v -65.185989 -0.000008 56.991142
v -65.143265 -0.000008 56.946804
v -65.095177 -0.000008 56.905964
v -65.041817 -0.000008 56.868759
v -64.983292 -0.000008 56.835320
v -65.039291 -0.000008 56.803173
v -65.092575 -0.000008 56.767540
v -64.494804 -0.000008 56.688732
v -64.537949 -0.000008 56.691589
v -65.143616 -0.000008 56.728458
v -64.453545 -0.000008 55.643654
v -64.580833 -0.000008 56.690758
v -64.624313 -0.000008 56.685001
v -64.669197 -0.000008 56.673084
v -65.192863 -0.000008 56.685974
v -64.716331 -0.000008 56.653767
v -64.766533 -0.000008 56.625813
v -65.240784 -0.000008 56.640141
v -64.820641 -0.000008 56.587986
v -65.287834 -0.000008 56.590996
v -64.879478 -0.000008 56.539051
v -65.334465 -0.000008 56.538582
v -64.943886 -0.000008 56.477768
v -65.381149 -0.000008 56.482956
v -65.014679 -0.000008 56.402897
v -65.428345 -0.000008 56.424152
v -65.092697 -0.000008 56.313206
v -65.476509 -0.000008 56.362221
v -65.526093 -0.000008 56.297203
v -65.178772 -0.000008 56.207458
v -65.577568 -0.000008 56.229153
v -65.540291 -0.000008 55.750694
v -65.605911 -0.000008 56.192242
v -65.632751 -0.000008 56.157898
v -65.658676 -0.000008 56.125366
v -65.684280 -0.000008 56.093906
v -65.710152 -0.000008 56.062759
v -65.736862 -0.000008 56.031189
v -65.765015 -0.000008 55.998436
v -65.795181 -0.000008 55.963760
v -65.827965 -0.000008 55.926411
v -65.863937 -0.000008 55.885635
v -65.903694 -0.000008 55.840694
v -65.947815 -0.000008 55.790833
v -61.520737 -0.000009 55.354790
v -62.546291 -0.000008 57.868420
v -62.305954 -0.000008 57.844749
v -62.472359 -0.000008 57.333599
v -63.843994 -0.000008 55.583618
v -62.201813 -0.000008 56.438267
v -62.940243 -0.000008 56.510998
v -62.099644 -0.000008 56.118713
v -63.109756 -0.000008 56.218204
v -61.869053 -0.000009 55.389099
v -63.495682 -0.000008 55.549313
v -59.272346 -0.000009 57.222397
v -61.227551 -0.000008 57.724464
v -59.242157 -0.000009 57.528915
v -61.257740 -0.000008 57.417950
v -60.094372 -0.000008 57.303364
v -60.298153 -0.000009 55.234375
v -60.435719 -0.000008 57.336983
v -60.639500 -0.000009 55.267994
v -58.339764 -0.000009 57.466549
v -58.490299 -0.000009 57.485340
v -58.444912 -0.000009 57.482044
v -58.535866 -0.000009 57.486313
v -58.581566 -0.000009 57.484951
v -58.242306 -0.000009 57.441784
v -58.627350 -0.000009 57.481255
v -58.673168 -0.000009 57.475216
v -58.152973 -0.000009 57.408173
v -58.718971 -0.000009 57.466835
v -58.764717 -0.000009 57.456100
v -58.072201 -0.000009 57.366138
v -58.810349 -0.000009 57.443008
v -58.855827 -0.000009 57.427559
v -58.000423 -0.000009 57.316097
v -58.901093 -0.000009 57.409744
v -58.946106 -0.000009 57.389557
v -57.938072 -0.000009 57.258472
v -58.990818 -0.000009 57.367001
v -58.620163 -0.000009 57.168060
v -58.667072 -0.000009 57.159275
v -58.715317 -0.000009 57.146873
v -58.764828 -0.000009 57.130562
v -58.815529 -0.000009 57.110062
v -58.867355 -0.000009 57.085079
v -58.920242 -0.000009 57.055328
v -58.974110 -0.000009 57.020519
v -59.028900 -0.000009 56.980370
v -57.885590 -0.000009 57.193691
v -58.530617 -0.000009 57.175930
v -58.574654 -0.000009 57.173515
v -57.843403 -0.000009 57.122166
v -58.447239 -0.000009 57.172783
v -58.488121 -0.000009 57.175591
v -57.811951 -0.000009 57.044323
v -58.393970 -0.000009 57.165154
v -58.344093 -0.000009 57.153244
v -58.297909 -0.000009 57.137302
v -58.255726 -0.000009 57.117577
v -58.217846 -0.000009 57.094322
v -58.184578 -0.000009 57.067780
v -57.791664 -0.000009 56.960583
v -58.156223 -0.000009 57.038208
v -58.133087 -0.000009 57.005852
v -58.115479 -0.000009 56.970963
v -57.782982 -0.000009 56.871365
v -58.103695 -0.000009 56.933792
v -58.098053 -0.000009 56.894585
v -57.786339 -0.000009 56.777096
v -58.098846 -0.000009 56.853596
v -58.129417 -0.000009 56.750458
v -57.821434 -0.000009 56.628063
v -58.194187 -0.000009 56.665874
v -58.286434 -0.000009 56.594894
v -57.890110 -0.000009 56.503780
v -58.399448 -0.000009 56.532551
v -57.985592 -0.000009 56.399967
v -58.526508 -0.000009 56.473888
v -58.660896 -0.000009 56.413944
v -58.101097 -0.000009 56.312340
v -58.795902 -0.000009 56.347763
v -58.229836 -0.000009 56.236618
v -58.924805 -0.000009 56.270378
v -58.365028 -0.000009 56.168514
v -59.040890 -0.000009 56.176834
v -58.499893 -0.000009 56.103748
v -59.137444 -0.000009 56.062168
v -58.627647 -0.000009 56.038040
v -58.741508 -0.000009 55.967102
v -59.207741 -0.000009 55.921421
v -58.834686 -0.000009 55.886654
v -58.900406 -0.000009 55.792416
v -59.245075 -0.000009 55.749634
v -58.931885 -0.000009 55.680099
v -57.956367 -0.000009 55.193638
v -57.963573 -0.000009 55.576313
v -57.913830 -0.000009 55.625546
v -59.248264 -0.000009 55.658092
v -58.932652 -0.000009 55.646149
v -58.014675 -0.000009 55.531536
v -58.928341 -0.000009 55.610943
v -59.239849 -0.000009 55.570259
v -58.067017 -0.000009 55.491276
v -58.918808 -0.000009 55.575172
v -58.120483 -0.000009 55.455597
v -58.903915 -0.000009 55.539532
v -58.883522 -0.000009 55.504719
v -59.220409 -0.000009 55.486786
v -58.174957 -0.000009 55.424557
v -58.857479 -0.000009 55.471428
v -58.230324 -0.000009 55.398224
v -58.825653 -0.000009 55.440346
v -58.286465 -0.000009 55.376656
v -59.190510 -0.000009 55.408325
v -58.787895 -0.000009 55.412178
v -58.343266 -0.000009 55.359917
v -58.744072 -0.000009 55.387608
v -58.400612 -0.000009 55.348064
v -58.694035 -0.000009 55.367340
v -58.458389 -0.000009 55.341167
v -58.637642 -0.000009 55.352062
v -58.516476 -0.000009 55.339279
v -59.150723 -0.000009 55.335537
v -58.574757 -0.000009 55.342468
v -59.101616 -0.000009 55.269070
v -58.009769 -0.000009 55.162769
v -58.063412 -0.000009 55.135258
v -59.043762 -0.000009 55.209579
v -58.117432 -0.000009 55.111080
v -58.977734 -0.000009 55.157726
v -58.171970 -0.000009 55.090218
v -58.227161 -0.000009 55.072639
v -58.904099 -0.000009 55.114159
v -58.283142 -0.000009 55.058327
v -58.340050 -0.000009 55.047256
v -58.823429 -0.000009 55.079533
v -58.398022 -0.000009 55.039406
v -58.457191 -0.000009 55.034752
v -58.736294 -0.000009 55.054504
v -58.517696 -0.000009 55.033268
v -58.579674 -0.000009 55.034935
v -58.643265 -0.000009 55.039726
vn 0.0000 1.0000 0.0000
vn 0.0000 -1.0000 0.0000
usemtl (null)
s off
f 1//1 2//1 3//1
f 1//1 4//1 2//1
f 5//1 4//1 1//1
f 6//1 7//1 5//1
f 7//2 4//2 5//2
f 6//1 8//1 7//1
f 9//1 10//1 11//1
f 10//1 12//1 11//1
f 10//1 13//1 12//1
f 10//1 14//1 13//1
f 10//1 15//1 14//1
f 10//1 16//1 15//1
f 10//1 17//1 16//1
f 10//1 18//1 17//1
f 10//1 19//1 18//1
f 10//1 20//1 19//1
f 20//1 21//1 19//1
f 9//1 22//1 10//1
f 23//1 21//1 20//1
f 24//1 21//1 23//1
f 25//1 21//1 24//1
f 25//1 26//1 21//1
f 27//1 26//1 25//1
f 28//1 26//1 27//1
f 29//1 26//1 28//1
f 29//1 30//1 26//1
f 31//1 30//1 29//1
f 32//1 30//1 31//1
f 33//1 30//1 32//1
f 33//1 34//1 30//1
f 35//1 34//1 33//1
f 36//1 34//1 35//1
f 36//1 37//1 34//1
f 38//1 37//1 36//1
f 39//1 37//1 38//1
f 39//1 40//1 37//1
f 41//1 40//1 39//1
f 41//1 42//1 40//1
f 43//1 42//1 41//1
f 44//1 42//1 43//1
f 44//1 45//1 42//1
f 46//1 45//1 44//1
f 46//1 47//1 45//1
f 48//1 47//1 46//1
f 48//1 49//1 47//1
f 50//1 49//1 48//1
f 51//1 49//1 50//1
f 51//1 52//1 49//1
f 53//1 52//1 51//1
f 54//1 52//1 53//1
f 54//1 55//1 52//1
f 56//1 55//1 54//1
f 57//1 55//1 56//1
f 9//1 58//1 22//1
f 58//1 57//1 22//1
f 58//1 55//1 57//1
f 58//1 59//1 55//1
f 58//1 60//1 59//1
f 58//1 61//1 60//1
f 58//1 62//1 61//1
f 58//1 63//1 62//1
f 58//1 64//1 63//1
f 58//1 65//1 64//1
f 58//1 66//1 65//1
f 66//1 67//1 65//1
f 67//1 68//1 65//1
f 9//1 69//1 58//1
f 70//1 68//1 67//1
f 71//1 68//1 70//1
f 72//1 68//1 71//1
f 72//1 73//1 68//1
f 74//1 73//1 72//1
f 75//1 73//1 74//1
f 75//1 76//1 73//1
f 77//1 76//1 75//1
f 77//1 78//1 76//1
f 79//1 78//1 77//1
f 79//1 80//1 78//1
f 81//1 80//1 79//1
f 81//1 82//1 80//1
f 83//1 82//1 81//1
f 83//1 84//1 82//1
f 85//1 84//1 83//1
f 85//1 86//1 84//1
f 85//1 87//1 86//1
f 88//1 87//1 85//1
f 88//1 89//1 87//1
f 90//1 89//1 88//1
f 90//1 91//1 89//1
f 90//1 92//1 91//1
f 90//1 93//1 92//1
f 90//1 94//1 93//1
f 90//1 95//1 94//1
f 90//1 96//1 95//1
f 90//1 97//1 96//1
f 90//1 98//1 97//1
f 90//1 99//1 98//1
f 90//1 100//1 99//1
f 90//1 101//1 100//1
f 90//1 102//1 101//1
f 103//1 104//1 105//1
f 103//1 106//1 104//1
f 106//1 107//1 104//1
f 103//1 108//1 106//1
f 109//1 107//1 106//1
f 103//1 110//1 108//1
f 110//1 109//1 108//1
f 110//1 111//1 109//1
f 111//1 107//1 109//1
f 103//1 112//1 110//1
f 113//1 107//1 111//1
f 114//1 115//1 116//1
f 114//1 117//1 115//1
f 118//2 117//2 114//2
f 119//1 120//1 118//1
f 120//1 117//1 118//1
f 119//1 121//1 120//1
f 122//1 123//1 124//1
f 122//1 125//1 123//1
f 122//1 126//1 125//1
f 127//1 126//1 122//1
f 127//1 128//1 126//1
f 127//1 129//1 128//1
f 130//1 129//1 127//1
f 130//1 131//1 129//1
f 130//1 132//1 131//1
f 133//1 132//1 130//1
f 133//1 134//1 132//1
f 133//1 135//1 134//1
f 136//1 135//1 133//1
f 136//1 137//1 135//1
f 136//1 138//1 137//1
f 139//1 138//1 136//1
f 139//1 140//1 138//1
f 139//1 141//1 140//1
f 141//1 142//1 140//1
f 142//1 143//1 140//1
f 143//1 144//1 140//1
f 144//1 145//1 140//1
f 145//1 146//1 140//1
f 146//1 147//1 140//1
f 147//1 148//1 140//1
f 148//1 149//1 140//1
f 150//1 151//1 139//1
f 151//1 152//1 139//1
f 152//1 141//1 139//1
f 153//1 154//1 150//1
f 154//1 155//1 150//1
f 155//1 151//1 150//1
f 156//1 157//1 153//1
f 157//1 154//1 153//1
f 156//1 158//1 157//1
f 156//1 159//1 158//1
f 156//1 160//1 159//1
f 156//1 161//1 160//1
f 156//1 162//1 161//1
f 163//1 162//1 156//1
f 163//1 164//1 162//1
f 163//1 165//1 164//1
f 163//1 166//1 165//1
f 167//1 166//1 163//1
f 167//1 168//1 166//1
f 167//1 169//1 168//1
f 170//1 169//1 167//1
f 170//1 171//1 169//1
f 170//1 172//1 171//1
f 173//1 172//1 170//1
f 173//1 174//1 172//1
f 173//1 175//1 174//1
f 176//1 175//1 173//1
f 176//1 177//1 175//1
f 178//1 177//1 176//1
f 178//1 179//1 177//1
f 178//1 180//1 179//1
f 181//1 180//1 178//1
f 181//1 182//1 180//1
f 183//1 182//1 181//1
f 183//1 184//1 182//1
f 185//1 184//1 183//1
f 185//1 186//1 184//1
f 187//1 186//1 185//1
f 187//1 188//1 186//1
f 189//1 188//1 187//1
f 190//1 188//1 189//1
f 190//1 191//1 188//1
f 192//1 191//1 190//1
f 193//1 191//1 192//1
f 193//1 194//1 191//1
f 195//1 194//1 193//1
f 196//1 197//1 198//1
f 195//1 199//1 194//1
f 200//1 199//1 195//1
f 196//1 201//1 197//1
f 202//1 199//1 200//1
f 202//1 203//1 199//1
f 196//1 204//1 201//1
f 205//1 203//1 202//1
f 196//1 206//1 204//1
f 207//1 203//1 205//1
f 208//1 203//1 207//1
f 208//1 209//1 203//1
f 196//1 210//1 206//1
f 211//1 209//1 208//1
f 196//1 212//1 210//1
f 213//1 209//1 211//1
f 196//1 214//1 212//1
f 213//1 215//1 209//1
f 216//1 215//1 213//1
f 196//1 217//1 214//1
f 218//1 215//1 216//1
f 196//1 219//1 217//1
f 220//1 215//1 218//1
f 196//1 221//1 219//1
f 222//1 215//1 220//1
f 196//1 223//1 221//1
f 222//1 224//1 215//1
f 225//1 224//1 222//1
f 196//1 225//1 223//1
f 196//1 224//1 225//1
f 196//1 226//1 224//1
f 227//1 226//1 196//1
f 228//1 226//1 227//1
f 228//1 229//1 226//1
f 230//1 229//1 228//1
f 230//1 231//1 229//1
f 232//1 231//1 230//1
f 233//1 231//1 232//1
f 233//1 234//1 231//1
f 235//1 234//1 233//1
f 236//1 234//1 235//1
f 236//1 237//1 234//1
f 238//1 237//1 236//1
f 239//1 237//1 238//1
f 239//1 240//1 237//1
f 241//1 240//1 239//1
f 242//1 240//1 241//1
f 242//1 243//1 240//1
