# Blender v2.79 (sub 0) OBJ File: ''
# www.blender.org
mtllib traguardo.mtl
o pista.001
v -66.002342 -0.000020 62.911041
v -67.327744 -0.000020 59.876251
v -68.854919 -0.000020 60.027843
v -67.476685 -0.000020 63.140614
v -64.528000 -0.000020 62.681473
v -65.800560 -0.000020 59.724655
v -63.053661 -0.000020 62.451900
v -64.273376 -0.000020 59.573063
v -61.579323 -0.000020 62.222328
v -62.746197 -0.000020 59.421467
v -60.104980 -0.000020 61.992760
v -61.219013 -0.000020 59.269871
v -58.630642 -0.000020 61.763187
v -59.691833 -0.000020 59.118279
v -57.156300 -0.000020 61.533615
v -58.164654 -0.000020 58.966682
v -55.681961 -0.000020 61.304043
v -56.637470 -0.000020 58.815090
v -54.207623 -0.000020 61.074474
v -55.110291 -0.000020 58.663494
vn -0.0000 1.0000 0.0000
usemtl (null)
s 1
f 1//1 2//1 3//1 4//1
f 5//1 6//1 2//1 1//1
f 7//1 8//1 6//1 5//1
f 9//1 10//1 8//1 7//1
f 11//1 12//1 10//1 9//1
f 13//1 14//1 12//1 11//1
f 15//1 16//1 14//1 13//1
f 17//1 18//1 16//1 15//1
f 19//1 20//1 18//1 17//1
